<svg xmlns="http://www.w3.org/2000/svg" xmlns:xlink="http://www.w3.org/1999/xlink" width="500" zoomAndPan="magnify" viewBox="0 0 375 374.999991" height="500" preserveAspectRatio="xMidYMid meet" version="1.0"><defs><clipPath id="2a5fea96f7"><path d="M 0 0 L 233.25 0 L 233.25 233.25 L 0 233.25 Z M 0 0 " clip-rule="nonzero"/></clipPath><clipPath id="be39035c37"><path d="M 116.765625 0 C 52.277344 0 0 52.277344 0 116.765625 C 0 181.253906 52.277344 233.53125 116.765625 233.53125 C 181.253906 233.53125 233.53125 181.253906 233.53125 116.765625 C 233.53125 52.277344 181.253906 0 116.765625 0 Z M 116.765625 0 " clip-rule="nonzero"/></clipPath><clipPath id="fd399a1aea"><path d="M 141.457031 70.730469 L 374.707031 70.730469 L 374.707031 303.980469 L 141.457031 303.980469 Z M 141.457031 70.730469 " clip-rule="nonzero"/></clipPath><clipPath id="f981c6d5e9"><path d="M 0 170.652344 L 233.25 170.652344 L 233.25 374.652344 L 0 374.652344 Z M 0 170.652344 " clip-rule="nonzero"/></clipPath><clipPath id="34dc24ee34"><path d="M 116.765625 170.652344 L 233.53125 374.992188 L 0 374.992188 Z M 116.765625 170.652344 " clip-rule="nonzero"/></clipPath></defs><g clip-path="url(#2a5fea96f7)"><g clip-path="url(#be39035c37)"><path stroke-linecap="butt" transform="matrix(0.75, 0, 0, 0.75, 0.0000045, 0)" fill="none" stroke-linejoin="miter" d="M 155.687504 0 C 69.703124 0 -0.000006 69.70313 -0.000006 155.68751 C -0.000006 241.671891 69.703124 311.37502 155.687504 311.37502 C 241.671885 311.37502 311.375014 241.671891 311.375014 155.68751 C 311.375014 69.70313 241.671885 0 155.687504 0 Z M 155.687504 0 " stroke="#000000" stroke-width="8" stroke-opacity="1" stroke-miterlimit="4"/></g></g><g clip-path="url(#fd399a1aea)"><path stroke-linecap="butt" transform="matrix(0.75, 0, 0, 0.75, 141.458887, 70.72944)" fill="none" stroke-linejoin="miter" d="M -0.00247461 0.00137146 L 311.372546 0.00137146 L 311.372546 311.376392 L -0.00247461 311.376392 Z M -0.00247461 0.00137146 " stroke="#000000" stroke-width="8" stroke-opacity="1" stroke-miterlimit="4"/></g><g clip-path="url(#f981c6d5e9)"><g clip-path="url(#34dc24ee34)"><path stroke-linecap="butt" transform="matrix(0.75, 0, 0, 0.75, 0.0000045, 170.651516)" fill="none" stroke-linejoin="miter" d="M 155.687504 0.00110367 L 311.375014 272.454247 L -0.000006 272.454247 Z M 155.687504 0.00110367 " stroke="#000000" stroke-width="8" stroke-opacity="1" stroke-miterlimit="4"/></g></g></svg>